<?xml version="1.0" encoding="UTF-8" standalone="no"?>
<!DOCTYPE svg PUBLIC "-//W3C//DTD SVG 1.1//EN" "http://www.w3.org/Graphics/SVG/1.1/DTD/svg11.dtd">
<svg version="1.1" xmlns="http://www.w3.org/2000/svg" xmlns:xlink="http://www.w3.org/1999/xlink" preserveAspectRatio="xMidYMid meet" viewBox="0 0 960 640" width="960" height="640"><defs><path d="M0 440.47L960 440.47L960 640L0 640L0 440.47Z" id="i7DdAjpMZ"></path><path d="M-60.52 430.87L-54.42 -16.09L989.41 -20.64L993.95 491.48L683.23 453.6L-60.52 430.87Z" id="n19sukt9U"></path><path d="M256.82 -45.5L294.32 -45.5L466.72 336.36L81.82 327.5L256.82 -45.5Z" id="e4w82xvmPq"></path><path d="M377.61 232.72C392.64 232.72 409.17 235.78 427.2 241.89C443.96 247.57 454.81 263.79 453.66 281.45C452.45 300.06 450.77 325.93 449.56 344.54C448.46 361.38 434.49 374.47 417.61 374.47C394.81 374.47 356.41 374.47 333.61 374.47C316.76 374.47 302.82 361.35 301.79 344.53C300.7 326.52 299.24 302.43 298.14 284.42C297.06 266.62 307.72 250.21 324.42 243.96C344.44 236.47 362.17 232.72 377.61 232.72Z" id="b1FQQvjKY0"></path><path d="M53.69 -25.39L91.19 -25.39L263.58 356.47L-121.31 347.61L53.69 -25.39Z" id="g2pvosiy1D"></path><path d="M-6.94 431.98L613.27 423.31L-10.54 484.22L-10.54 484.22L-10.54 484.22L-10.54 510.22C19.35 518.74 64.85 525.96 125.96 531.91C217.62 540.82 296.56 542.98 356.11 540.24C471.74 534.9 580.78 513.57 683.23 476.22L683.23 436.34" id="a5OWVlM18m"></path><path d="M81.82 327.5C107.66 339.17 176.16 345 287.32 345C398.49 345 472.99 339.17 510.82 327.5L470.82 313.5C426.49 315.83 369.83 318 300.83 320C231.83 322 173.16 319.83 124.82 313.5L81.82 327.5Z" id="cbuBL6lT"></path><path d="M694.92 455.45C632.63 470.97 593.7 480.67 578.13 484.56C388.62 531.79 190.76 534.58 0 492.72C0 492.72 0 492.72 0 492.72L0 259.49L88.24 263.78L88.24 336.76C122.82 343.43 179.1 347.25 257.08 348.2C335.06 349.16 415.66 347.25 498.89 342.48L500.89 267.6L698.14 260.78L694.92 455.45Z" id="f90Zri1e"></path><path d="M683.23 453.72L992.49 485.48L992.49 510.22L683.23 476.22L683.23 453.72Z" id="iCBzK9Iql"></path><path d="M135.45 257.99L135.45 320L88.24 329.6L88.24 263.15L135.45 257.99Z" id="esIoSHDpZ"></path><path d="M459.64 322.3L498.97 330.22L499.97 268.19L462.31 266.22L459.64 322.3Z" id="b4gcGmgfI7"></path><path d="M488.73 246.67L453.22 245.47L453.22 263.05L499.97 266.22L499.97 247.05L488.73 246.67Z" id="a1DC5Mww1K"></path><path d="M0 239.89L0 258.22L88.24 263.15L88.24 244.22L0 239.89Z" id="actvWs43G"></path><path d="M142.27 237.33L142.27 256.17L88.24 263.15L88.24 244.5L142.27 237.33Z" id="ad0osNEAu"></path><path d="M702.68 242.72L702.68 259.49L499.97 266.22L499.97 247.39L702.68 242.72Z" id="b1LiwupIE"></path><path d="M506.82 345.5C422.99 353.71 345.66 357.31 274.83 356.31C203.99 355.31 139.66 350.71 81.82 342.5L81.82 327.5C139.66 335.15 203.99 339.15 274.83 339.5C345.66 339.85 422.99 336.55 506.82 329.6L506.82 345.5Z" id="cHH6yxZFf"></path><path d="M475.58 -45.5L683.23 0L680.23 239.5L475.58 244.05L475.58 -45.5Z" id="a2JSmFlYw7"></path><path d="M-53.42 -14.67L121.73 -49.67L117.23 237.33L-54.42 233.39L-53.42 -14.67Z" id="a1TmunUxJd"></path><path d="M453.22 244.05L678.72 239.97L702.68 242.05L499.97 245.47L453.22 244.72L453.22 244.05Z" id="brMtUnUhU"></path><path d="M0 238.47L0 234.47L142.27 237.33L88.24 244.5L0 238.47Z" id="a2gEG8faU0"></path><path d="M697.14 320L993.95 335.72L993.95 352.72L697.14 335.72L697.14 320Z" id="f8YaWXXeF4"></path><path d="M888.36 584.78C889 587.24 890.11 591.45 891.69 597.39C892.2 599.07 892.77 600.76 893.41 602.49C894.38 605.08 895.23 606.01 895.52 607.74C896.03 610.76 896.04 609.19 896.45 612.18C896.95 615.82 898.26 620.7 898.55 624.54C899.16 632.91 898.97 641.37 897.95 649.94C902.96 649.51 943.02 646.11 948.03 645.68C947.96 632.77 947.19 620.21 945.75 607.99C945.34 604.64 944.01 601.32 943.55 598.03C942.54 590.75 942.07 583.59 940.77 576.56C939.34 568.79 937.97 560.57 936.65 551.9C932.99 552.57 914.68 555.91 881.72 561.92C884.88 572.31 887.09 579.93 888.36 584.78Z" id="bPhieieWq"></path><path d="M888.36 584.78C889 587.24 890.11 591.45 891.69 597.39C892.2 599.07 892.77 600.76 893.41 602.49C894.38 605.08 895.23 606.01 895.52 607.74C896.03 610.76 896.04 609.19 896.45 612.18C896.95 615.82 898.26 620.7 898.55 624.54C899.16 632.91 898.97 641.37 897.95 649.94C902.96 649.51 943.02 646.11 948.03 645.68C947.96 632.77 947.19 620.21 945.75 607.99C945.34 604.64 944.01 601.32 943.55 598.03C942.54 590.75 942.07 583.59 940.77 576.56C939.34 568.79 937.97 560.57 936.65 551.9C932.99 552.57 914.68 555.91 881.72 561.92C884.88 572.31 887.09 579.93 888.36 584.78Z" id="aN8Km5Fx2"></path><path d="M747.93 462.16L833.52 353.36L826.24 324.67C800.56 327.95 786.3 329.77 783.44 330.14C772.39 331.59 765.41 328.25 762.5 320.14C759.6 312.02 758.49 299.12 759.18 281.43C750.5 282.47 681.04 290.85 672.36 291.9C677.68 310.19 678.89 325.97 676.01 339.24C675.35 342.28 673.12 341.66 671.13 341.4C669.79 341.22 669.04 341.2 667.07 342.63C659.34 348.24 646.84 355.46 629.57 364.28C630.75 368.86 636.67 391.78 647.32 433.02L747.93 462.16Z" id="aMOson45x"></path><path d="M747.93 462.16L833.52 353.36L826.24 324.67C800.56 327.95 786.3 329.77 783.44 330.14C772.39 331.59 765.41 328.25 762.5 320.14C759.6 312.02 758.49 299.12 759.18 281.43C750.5 282.47 681.04 290.85 672.36 291.9C677.68 310.19 678.89 325.97 676.01 339.24C675.35 342.28 673.12 341.66 671.13 341.4C669.79 341.22 669.04 341.2 667.07 342.63C659.34 348.24 646.84 355.46 629.57 364.28C630.75 368.86 636.67 391.78 647.32 433.02L747.93 462.16Z" id="d1n4jRXg58"></path><path d="M603.21 606.23C605.32 606.33 615.83 606.84 634.77 607.74L631.74 647.81C606.06 645.99 591.8 644.98 588.94 644.77C590.5 637.73 592.47 630.99 594.84 624.57C597.23 618.14 600.02 612.03 603.21 606.23Z" id="auBOpI6F"></path><path d="M603.21 606.23C605.32 606.33 615.83 606.84 634.77 607.74L631.74 647.81C606.06 645.99 591.8 644.98 588.94 644.77C590.5 637.73 592.47 630.99 594.84 624.57C597.23 618.14 600.02 612.03 603.21 606.23Z" id="a1moqIE0AX"></path><path d="M580.24 403.67C574.87 417.59 567.09 448.43 565.13 463.36C563.16 478.29 561.68 491.49 560.9 504.93C560.34 514.66 560.8 523.86 560.9 527.46C560.99 531.05 561.68 534.4 560.9 544.98C560.49 550.41 558.35 558.4 558.35 561.69C558.35 564.99 558.82 570.31 560.09 574.55C561.53 579.31 564.73 583.83 566.18 585.16C568.91 587.66 575.79 592.82 577.11 595.17C578.43 597.52 574.95 607.84 575.83 609.86C576.72 611.88 585.32 609.28 593.92 611.26C602.53 613.23 604.29 615.27 613.46 617.02C619.58 618.19 625.31 618.59 630.64 618.23C628.3 623.59 626.44 628.37 625.07 632.56C623.71 636.76 622.83 640.39 622.45 643.43C640.39 643.37 730.12 643.06 891.62 642.52L876.74 556.96C880.75 567.16 882.98 572.82 883.42 573.96C893 575.74 902.15 575.39 910.86 572.88C919.58 570.38 927.86 565.73 935.71 558.93C945.51 554.33 951.95 549.17 955.03 543.46C959.67 534.88 952.51 530.67 954.22 524.64C955.94 518.6 963.49 513.26 958.07 494.12C952.65 474.97 955.88 481.92 941.05 444.71C931.15 419.92 918.07 389.42 901.77 353.22C890.3 335.19 879.51 324.89 869.41 322.33C859.31 319.75 843.53 319.45 822.07 321.42C811.89 347.62 799.56 368.42 785.07 383.82C770.58 399.23 752.71 413.07 731.47 425.37C699.28 425.78 674.64 416.85 657.57 398.57C640.5 380.28 634.02 365.39 638.15 353.89C635.69 355.51 623.42 363.62 601.33 378.21C589.65 389 582.63 397.48 580.24 403.67Z" id="a7ZEF6L44"></path><path d="M580.24 403.67C574.87 417.59 567.09 448.43 565.13 463.36C563.16 478.29 561.68 491.49 560.9 504.93C560.34 514.66 560.8 523.86 560.9 527.46C560.99 531.05 561.68 534.4 560.9 544.98C560.49 550.41 558.35 558.4 558.35 561.69C558.35 564.99 558.82 570.31 560.09 574.55C561.53 579.31 564.73 583.83 566.18 585.16C568.91 587.66 575.79 592.82 577.11 595.17C578.43 597.52 574.95 607.84 575.83 609.86C576.72 611.88 585.32 609.28 593.92 611.26C602.53 613.23 604.29 615.27 613.46 617.02C619.58 618.19 625.31 618.59 630.64 618.23C628.3 623.59 626.44 628.37 625.07 632.56C623.71 636.76 622.83 640.39 622.45 643.43C640.39 643.37 730.12 643.06 891.62 642.52L876.74 556.96C880.75 567.16 882.98 572.82 883.42 573.96C893 575.74 902.15 575.39 910.86 572.88C919.58 570.38 927.86 565.73 935.71 558.93C945.51 554.33 951.95 549.17 955.03 543.46C959.67 534.88 952.51 530.67 954.22 524.64C955.94 518.6 963.49 513.26 958.07 494.12C952.65 474.97 955.88 481.92 941.05 444.71C931.15 419.92 918.07 389.42 901.77 353.22C890.3 335.19 879.51 324.89 869.41 322.33C859.31 319.75 843.53 319.45 822.07 321.42C811.89 347.62 799.56 368.42 785.07 383.82C770.58 399.23 752.71 413.07 731.47 425.37C699.28 425.78 674.64 416.85 657.57 398.57C640.5 380.28 634.02 365.39 638.15 353.89C635.69 355.51 623.42 363.62 601.33 378.21C589.65 389 582.63 397.48 580.24 403.67Z" id="a1vw6nYxKm"></path><path d="M701.04 146.55C708.73 148.15 713.28 148.15 714.7 146.55C716.82 144.14 714.77 143.68 714.7 139.96C714.62 136.24 714.79 131.45 716.61 124.4C718.43 117.34 722.67 115.14 721.98 113.17C721.3 111.19 702.72 110.97 687.08 117.72C671.44 124.47 669.9 127.96 659.43 139.26C652.45 146.8 647.71 154.7 645.19 162.94C644.63 163.73 641.8 167.67 636.7 174.77C629.96 192.62 626.22 202.54 625.47 204.52C626.47 219.06 627.33 228.53 628.06 232.93C628.79 237.32 631.35 252.88 635.76 279.61C638.3 296.41 639.11 310.94 638.18 323.17C637.25 335.42 634.39 347.52 629.57 359.48C632.56 358.36 656.45 349.37 659.43 348.25C667.06 345.65 672.33 342.01 675.21 337.33C679.54 330.3 677.56 331.07 676.73 320.14C676.17 312.86 674.56 304.02 671.87 293.63C670.54 292.9 668.37 290.37 665.33 286.03C660.77 279.54 657.12 266.72 657.3 260.35C657.49 253.98 656.22 247.98 656.22 235.77C656.22 223.55 654.68 223.32 655.48 211.48C656.28 199.65 655.94 198.58 659.43 187.51C661.76 180.12 665.1 172.94 669.45 165.96C670.73 164.73 677.11 158.56 688.6 147.46C696.06 146.91 700.21 146.61 701.04 146.55Z" id="a7JsliS1k"></path><path d="M701.04 146.55C708.73 148.15 713.28 148.15 714.7 146.55C716.82 144.14 714.77 143.68 714.7 139.96C714.62 136.24 714.79 131.45 716.61 124.4C718.43 117.34 722.67 115.14 721.98 113.17C721.3 111.19 702.72 110.97 687.08 117.72C671.44 124.47 669.9 127.96 659.43 139.26C652.45 146.8 647.71 154.7 645.19 162.94C644.63 163.73 641.8 167.67 636.7 174.77C629.96 192.62 626.22 202.54 625.47 204.52C626.47 219.06 627.33 228.53 628.06 232.93C628.79 237.32 631.35 252.88 635.76 279.61C638.3 296.41 639.11 310.94 638.18 323.17C637.25 335.42 634.39 347.52 629.57 359.48C632.56 358.36 656.45 349.37 659.43 348.25C667.06 345.65 672.33 342.01 675.21 337.33C679.54 330.3 677.56 331.07 676.73 320.14C676.17 312.86 674.56 304.02 671.87 293.63C670.54 292.9 668.37 290.37 665.33 286.03C660.77 279.54 657.12 266.72 657.3 260.35C657.49 253.98 656.22 247.98 656.22 235.77C656.22 223.55 654.68 223.32 655.48 211.48C656.28 199.65 655.94 198.58 659.43 187.51C661.76 180.12 665.1 172.94 669.45 165.96C670.73 164.73 677.11 158.56 688.6 147.46C696.06 146.91 700.21 146.61 701.04 146.55Z" id="c7g39iBin"></path><path d="M766.41 274.29C764.67 279.09 759.82 285.46 757.31 289.79C751.84 299.23 743.43 307.8 735.34 312.15C730.05 314.99 722.79 316.54 716.77 316.54C710.62 316.54 704.56 314.92 697.63 311.97C690.97 309.13 683.43 305.06 678.73 300C672.35 293.14 663.77 284.17 660.55 274.29C656.17 260.92 656.22 244.74 656.22 228.53C656.22 208.88 657.49 188.24 665.52 174.14C676.38 155.05 696.57 145.67 714.34 145.67C745.25 145.67 775.19 179.26 775.19 225.5C775.19 242.61 771.1 261.32 766.41 274.29Z" id="a4ZrdAcgSs"></path><path d="M766.41 274.29C764.67 279.09 759.82 285.46 757.31 289.79C751.84 299.23 743.43 307.8 735.34 312.15C730.05 314.99 722.79 316.54 716.77 316.54C710.62 316.54 704.56 314.92 697.63 311.97C690.97 309.13 683.43 305.06 678.73 300C672.35 293.14 663.77 284.17 660.55 274.29C656.17 260.92 656.22 244.74 656.22 228.53C656.22 208.88 657.49 188.24 665.52 174.14C676.38 155.05 696.57 145.67 714.34 145.67C745.25 145.67 775.19 179.26 775.19 225.5C775.19 242.61 771.1 261.32 766.41 274.29Z" id="bIbrphLTB"></path><path d="M673.69 141.38C657.56 144.34 650.59 150.13 641.01 163.23C631.42 176.31 627.57 184.23 625.14 197.07C622.71 209.9 625.29 218.6 627.57 230.2C629.08 237.93 632.42 247.32 637.58 258.37C641.22 270.48 643.65 282.2 644.87 293.52C646.08 304.84 645.78 316.07 643.96 327.21C642.59 336.97 640.16 344.96 636.67 351.18C633.18 357.41 627.71 361.86 620.28 364.54C623.82 362.51 627.77 361.5 632.12 361.5C636.46 361.5 641.22 362.51 646.38 364.54C656.68 366.44 663.26 363.2 666.11 354.82C670.39 342.26 667.04 333.97 663.5 314.28C659.96 294.58 659.18 289.34 653.18 270.87C647.18 252.42 644.8 249.7 639.49 240.45C634.18 231.19 628.8 219.43 628.9 213.21C629.12 199.08 630.19 194.79 640.13 184C650.07 173.21 655.19 174.44 668.06 166.4C680.91 158.36 682.01 155.7 691.57 151.83C697.95 149.25 705.39 147.2 713.88 145.67C713.82 143.9 711.05 142.03 705.56 140.08C697.34 137.17 689.84 138.42 673.69 141.38Z" id="c370I0AqBl"></path><path d="M673.69 141.38C657.56 144.34 650.59 150.13 641.01 163.23C631.42 176.31 627.57 184.23 625.14 197.07C622.71 209.9 625.29 218.6 627.57 230.2C629.08 237.93 632.42 247.32 637.58 258.37C641.22 270.48 643.65 282.2 644.87 293.52C646.08 304.84 645.78 316.07 643.96 327.21C642.59 336.97 640.16 344.96 636.67 351.18C633.18 357.41 627.71 361.86 620.28 364.54C623.82 362.51 627.77 361.5 632.12 361.5C636.46 361.5 641.22 362.51 646.38 364.54C656.68 366.44 663.26 363.2 666.11 354.82C670.39 342.26 667.04 333.97 663.5 314.28C659.96 294.58 659.18 289.34 653.18 270.87C647.18 252.42 644.8 249.7 639.49 240.45C634.18 231.19 628.8 219.43 628.9 213.21C629.12 199.08 630.19 194.79 640.13 184C650.07 173.21 655.19 174.44 668.06 166.4C680.91 158.36 682.01 155.7 691.57 151.83C697.95 149.25 705.39 147.2 713.88 145.67C713.82 143.9 711.05 142.03 705.56 140.08C697.34 137.17 689.84 138.42 673.69 141.38Z" id="dkmUzfvsZ"></path><path d="M759.18 139.71C780.85 166.93 792.9 182.05 795.31 185.08C801.07 197.67 805.42 209.92 808.35 221.8C812.76 239.64 810.33 238.88 809.57 255.49C808.81 272.09 805.78 276.41 808.35 289.15C810.94 301.89 811.17 302.58 823.23 307.36C835.29 312.14 849.93 307.71 856.61 308.27C863.29 308.82 873.38 310.7 883.32 316.54C893.26 322.39 892.43 323.71 896.37 331.64C899 336.92 899.91 342.46 899.1 348.25C896.57 342.82 892.93 338 888.18 333.76C881.05 327.41 881.12 326.24 870.58 322.84C860.02 319.43 857.06 319.08 846.9 320.14C836.73 321.2 836.66 324.21 829.9 327.09C823.15 329.96 823.23 328.75 819.89 331.64C817.66 333.56 816.55 335.88 816.55 338.61C821.81 347.32 825.45 356.62 827.47 366.54C830.51 381.41 831.8 384.52 829.9 399.32C828.64 409.18 825.3 417.98 819.89 425.72C820.74 417.03 820.74 408.63 819.89 400.53C818.61 388.38 819.12 386.4 814.79 377.14C811.9 370.97 808.14 365.51 803.5 360.78C806.23 367.24 807.85 372.4 808.35 376.24C808.86 380.09 808.86 384.54 808.35 389.6C807.1 386.96 805.74 384.1 804.27 381.02C802.81 377.93 801.23 374.62 799.56 371.09C802.69 378.38 804 386.57 803.5 395.67C802.99 404.78 800.67 414.79 796.52 425.72C794.57 402.48 791.54 385.68 787.41 375.34C783.29 365 778.79 357.27 773.91 352.15C770.29 345.83 767.26 338.75 764.8 330.91C761.12 319.15 760.58 314.75 759.18 305.11C758.24 298.69 758.24 293.13 759.18 288.42C759.61 287.71 761.79 284.17 765.7 277.79C769.95 260.88 772.32 251.48 772.79 249.61C774.54 232.1 775.34 220.77 775.19 215.61C774.97 207.87 773.99 205.14 770.66 195.58C768.44 189.2 765.51 182.33 761.86 174.95C757.26 167.68 751.79 161.61 745.48 156.74C739.15 151.86 731.96 148.17 723.92 145.67C724.48 144.75 727.24 140.13 732.21 131.82L759.18 139.71Z" id="a2Pvz0OVV"></path><path d="M759.18 139.71C780.85 166.93 792.9 182.05 795.31 185.08C801.07 197.67 805.42 209.92 808.35 221.8C812.76 239.64 810.33 238.88 809.57 255.49C808.81 272.09 805.78 276.41 808.35 289.15C810.94 301.89 811.17 302.58 823.23 307.36C835.29 312.14 849.93 307.71 856.61 308.27C863.29 308.82 873.38 310.7 883.32 316.54C893.26 322.39 892.43 323.71 896.37 331.64C899 336.92 899.91 342.46 899.1 348.25C896.57 342.82 892.93 338 888.18 333.76C881.05 327.41 881.12 326.24 870.58 322.84C860.02 319.43 857.06 319.08 846.9 320.14C836.73 321.2 836.66 324.21 829.9 327.09C823.15 329.96 823.23 328.75 819.89 331.64C817.66 333.56 816.55 335.88 816.55 338.61C821.81 347.32 825.45 356.62 827.47 366.54C830.51 381.41 831.8 384.52 829.9 399.32C828.64 409.18 825.3 417.98 819.89 425.72C820.74 417.03 820.74 408.63 819.89 400.53C818.61 388.38 819.12 386.4 814.79 377.14C811.9 370.97 808.14 365.51 803.5 360.78C806.23 367.24 807.85 372.4 808.35 376.24C808.86 380.09 808.86 384.54 808.35 389.6C807.1 386.96 805.74 384.1 804.27 381.02C802.81 377.93 801.23 374.62 799.56 371.09C802.69 378.38 804 386.57 803.5 395.67C802.99 404.78 800.67 414.79 796.52 425.72C794.57 402.48 791.54 385.68 787.41 375.34C783.29 365 778.79 357.27 773.91 352.15C770.29 345.83 767.26 338.75 764.8 330.91C761.12 319.15 760.58 314.75 759.18 305.11C758.24 298.69 758.24 293.13 759.18 288.42C759.61 287.71 761.79 284.17 765.7 277.79C769.95 260.88 772.32 251.48 772.79 249.61C774.54 232.1 775.34 220.77 775.19 215.61C774.97 207.87 773.99 205.14 770.66 195.58C768.44 189.2 765.51 182.33 761.86 174.95C757.26 167.68 751.79 161.61 745.48 156.74C739.15 151.86 731.96 148.17 723.92 145.67C724.48 144.75 727.24 140.13 732.21 131.82L759.18 139.71Z" id="a7zlzRORo9"></path><path d="M745.07 148.48C747.12 148.86 752.02 148.71 755.09 156.06C758.16 163.42 754.98 166.51 759.18 176.68C763.37 186.84 765.48 189.9 771.85 196.73C778.23 203.57 784.93 210.24 783.01 224.66C781.1 239.07 771.56 244.76 767.54 254.39C763.51 264.04 758.81 277.02 762.37 288.39C765.94 299.76 769.57 303.23 778.76 306.87C787.97 310.5 793.36 309.22 800.09 306.87C804.57 305.29 809.47 302.77 814.79 299.28C800.68 301.97 791.06 300.65 785.96 295.34C778.3 287.37 775.11 285.68 778.07 269.85C781.03 254.01 789.52 245.45 794.15 231.11C798.78 216.77 801.04 195.53 794.15 176.68C787.27 157.81 785.77 152.18 773.27 137.64C760.77 123.1 753.4 116.66 744.14 114.58C734.88 112.5 724.94 112.83 723.81 114.58C722.67 116.32 720.99 117 719.25 121.55C717.5 126.11 717.05 126.75 716.82 132.79C716.59 138.82 716.07 142.57 718.34 145.67C719.85 147.75 721.67 149.02 723.81 149.48C724.11 149.53 725.64 149.81 728.39 150.3C738.6 148.91 744.16 148.31 745.07 148.48Z" id="b1nExZdr3u"></path><path d="M745.07 148.48C747.12 148.86 752.02 148.71 755.09 156.06C758.16 163.42 754.98 166.51 759.18 176.68C763.37 186.84 765.48 189.9 771.85 196.73C778.23 203.57 784.93 210.24 783.01 224.66C781.1 239.07 771.56 244.76 767.54 254.39C763.51 264.04 758.81 277.02 762.37 288.39C765.94 299.76 769.57 303.23 778.76 306.87C787.97 310.5 793.36 309.22 800.09 306.87C804.57 305.29 809.47 302.77 814.79 299.28C800.68 301.97 791.06 300.65 785.96 295.34C778.3 287.37 775.11 285.68 778.07 269.85C781.03 254.01 789.52 245.45 794.15 231.11C798.78 216.77 801.04 195.53 794.15 176.68C787.27 157.81 785.77 152.18 773.27 137.64C760.77 123.1 753.4 116.66 744.14 114.58C734.88 112.5 724.94 112.83 723.81 114.58C722.67 116.32 720.99 117 719.25 121.55C717.5 126.11 717.05 126.75 716.82 132.79C716.59 138.82 716.07 142.57 718.34 145.67C719.85 147.75 721.67 149.02 723.81 149.48C724.11 149.53 725.64 149.81 728.39 150.3C738.6 148.91 744.16 148.31 745.07 148.48Z" id="b5pWduTDu"></path><path d="M767.19 216.82C767.19 216.28 767.19 215.23 767.19 213.63C766.86 213.3 765.19 211.63 762.18 208.62L758.09 207.26L753.53 207.26L734.64 209.53L734.64 207.26L742.61 206.35L746.93 206.35L757.17 207.26" id="a2Y2hNSOPU"></path><path d="M685.25 199.06L691.85 200.66L697.99 203.16L706.64 204.07L705.5 201.57L701.18 199.97L693.44 198.15L685.93 197.24L679.1 198.15L672.73 201.57L668.63 204.75" id="boP7OQU7E"></path><path d="M685.25 199.06L691.85 200.66L697.99 203.16L706.64 204.07L705.5 201.57L701.18 199.97L693.44 198.15L685.93 197.24L679.1 198.15L672.73 201.57L668.63 204.75" id="dGmaf09ox"></path></defs><g><g><g><use xlink:href="#i7DdAjpMZ" opacity="1" fill="#aa8973" fill-opacity="1"></use></g><g><use xlink:href="#n19sukt9U" opacity="1" fill="#c8cbcb" fill-opacity="1"></use><g><use xlink:href="#n19sukt9U" opacity="1" fill-opacity="0" stroke="#434343" stroke-width="3" stroke-opacity="1"></use></g></g><g><use xlink:href="#e4w82xvmPq" opacity="1" fill="#fffbca" fill-opacity="0.06"></use></g><g><use xlink:href="#b1FQQvjKY0" opacity="1" fill="#799ca7" fill-opacity="1"></use><g><use xlink:href="#b1FQQvjKY0" opacity="1" fill-opacity="0" stroke="#434343" stroke-width="3" stroke-opacity="1"></use></g></g><g><use xlink:href="#g2pvosiy1D" opacity="1" fill="#fffbca" fill-opacity="0.05"></use></g><g><use xlink:href="#a5OWVlM18m" opacity="1" fill="#799ca7" fill-opacity="1"></use><g><use xlink:href="#a5OWVlM18m" opacity="1" fill-opacity="0" stroke="#434343" stroke-width="3" stroke-opacity="1"></use></g></g><g><use xlink:href="#cbuBL6lT" opacity="1" fill="#97938a" fill-opacity="1"></use><g><use xlink:href="#cbuBL6lT" opacity="1" fill-opacity="0" stroke="#434343" stroke-width="3" stroke-opacity="1"></use></g></g><g><use xlink:href="#f90Zri1e" opacity="1" fill="#caa37a" fill-opacity="1"></use><g><use xlink:href="#f90Zri1e" opacity="1" fill-opacity="0" stroke="#434343" stroke-width="3" stroke-opacity="1"></use></g></g><g><use xlink:href="#iCBzK9Iql" opacity="1" fill="#86756e" fill-opacity="1"></use><g><use xlink:href="#iCBzK9Iql" opacity="1" fill-opacity="0" stroke="#434343" stroke-width="3" stroke-opacity="1"></use></g></g><g><use xlink:href="#esIoSHDpZ" opacity="1" fill="#9e8060" fill-opacity="1"></use><g><use xlink:href="#esIoSHDpZ" opacity="1" fill-opacity="0" stroke="#434343" stroke-width="3" stroke-opacity="1"></use></g></g><g><use xlink:href="#b4gcGmgfI7" opacity="1" fill="#9e8060" fill-opacity="1"></use><g><use xlink:href="#b4gcGmgfI7" opacity="1" fill-opacity="0" stroke="#434343" stroke-width="3" stroke-opacity="1"></use></g></g><g><use xlink:href="#a1DC5Mww1K" opacity="1" fill="#888176" fill-opacity="1"></use><g><use xlink:href="#a1DC5Mww1K" opacity="1" fill-opacity="0" stroke="#434343" stroke-width="3" stroke-opacity="1"></use></g></g><g><use xlink:href="#actvWs43G" opacity="1" fill="#888176" fill-opacity="1"></use><g><use xlink:href="#actvWs43G" opacity="1" fill-opacity="0" stroke="#434343" stroke-width="3" stroke-opacity="1"></use></g></g><g><use xlink:href="#ad0osNEAu" opacity="1" fill="#a0a19b" fill-opacity="1"></use><g><use xlink:href="#ad0osNEAu" opacity="1" fill-opacity="0" stroke="#434343" stroke-width="3" stroke-opacity="1"></use></g></g><g><use xlink:href="#b1LiwupIE" opacity="1" fill="#a0a19b" fill-opacity="1"></use><g><use xlink:href="#b1LiwupIE" opacity="1" fill-opacity="0" stroke="#434343" stroke-width="3" stroke-opacity="1"></use></g></g><g><use xlink:href="#cHH6yxZFf" opacity="1" fill="#bab9b3" fill-opacity="1"></use><g><use xlink:href="#cHH6yxZFf" opacity="1" fill-opacity="0" stroke="#434343" stroke-width="3" stroke-opacity="1"></use></g></g><g><use xlink:href="#a2JSmFlYw7" opacity="1" fill="#688d97" fill-opacity="0.25"></use><g><use xlink:href="#a2JSmFlYw7" opacity="1" fill-opacity="0" stroke="#434343" stroke-width="3" stroke-opacity="1"></use></g></g><g><use xlink:href="#a1TmunUxJd" opacity="1" fill="#688d97" fill-opacity="0.25"></use><g><use xlink:href="#a1TmunUxJd" opacity="1" fill-opacity="0" stroke="#434343" stroke-width="3" stroke-opacity="1"></use></g></g><g><use xlink:href="#brMtUnUhU" opacity="1" fill="#434343" fill-opacity="1"></use><g><use xlink:href="#brMtUnUhU" opacity="1" fill-opacity="0" stroke="#434343" stroke-width="3" stroke-opacity="1"></use></g></g><g><use xlink:href="#a2gEG8faU0" opacity="1" fill="#434343" fill-opacity="1"></use><g><use xlink:href="#a2gEG8faU0" opacity="1" fill-opacity="0" stroke="#434343" stroke-width="3" stroke-opacity="1"></use></g></g><g><use xlink:href="#f8YaWXXeF4" opacity="1" fill="#76563b" fill-opacity="1"></use><g><use xlink:href="#f8YaWXXeF4" opacity="1" fill-opacity="0" stroke="#434343" stroke-width="3" stroke-opacity="1"></use></g></g><g><use xlink:href="#bPhieieWq" opacity="1" fill="#c17b57" fill-opacity="1"></use><g><use xlink:href="#bPhieieWq" opacity="1" fill-opacity="0" stroke="#000000" stroke-width="1" stroke-opacity="0"></use></g></g><g><use xlink:href="#aN8Km5Fx2" opacity="1" fill="#000000" fill-opacity="0"></use><g><use xlink:href="#aN8Km5Fx2" opacity="1" fill-opacity="0" stroke="#434343" stroke-width="3" stroke-opacity="1"></use></g></g><g><use xlink:href="#aMOson45x" opacity="1" fill="#c17b57" fill-opacity="1"></use><g><use xlink:href="#aMOson45x" opacity="1" fill-opacity="0" stroke="#000000" stroke-width="1" stroke-opacity="0"></use></g></g><g><use xlink:href="#d1n4jRXg58" opacity="1" fill="#000000" fill-opacity="0"></use><g><use xlink:href="#d1n4jRXg58" opacity="1" fill-opacity="0" stroke="#434343" stroke-width="3" stroke-opacity="1"></use></g></g><g><use xlink:href="#auBOpI6F" opacity="1" fill="#c17b57" fill-opacity="1"></use><g><use xlink:href="#auBOpI6F" opacity="1" fill-opacity="0" stroke="#000000" stroke-width="1" stroke-opacity="0"></use></g></g><g><use xlink:href="#a1moqIE0AX" opacity="1" fill="#000000" fill-opacity="0"></use><g><use xlink:href="#a1moqIE0AX" opacity="1" fill-opacity="0" stroke="#434343" stroke-width="3" stroke-opacity="1"></use></g></g><g><use xlink:href="#a7ZEF6L44" opacity="1" fill="#eaf2f7" fill-opacity="1"></use><g><use xlink:href="#a7ZEF6L44" opacity="1" fill-opacity="0" stroke="#000000" stroke-width="1" stroke-opacity="0"></use></g></g><g><use xlink:href="#a1vw6nYxKm" opacity="1" fill="#000000" fill-opacity="0"></use><g><use xlink:href="#a1vw6nYxKm" opacity="1" fill-opacity="0" stroke="#434343" stroke-width="3" stroke-opacity="1"></use></g></g><g><use xlink:href="#a7JsliS1k" opacity="1" fill="#282320" fill-opacity="1"></use><g><use xlink:href="#a7JsliS1k" opacity="1" fill-opacity="0" stroke="#000000" stroke-width="1" stroke-opacity="0"></use></g></g><g><use xlink:href="#c7g39iBin" opacity="1" fill="#000000" fill-opacity="0"></use><g><use xlink:href="#c7g39iBin" opacity="1" fill-opacity="0" stroke="#434343" stroke-width="3" stroke-opacity="1"></use></g></g><g><use xlink:href="#a4ZrdAcgSs" opacity="1" fill="#c48261" fill-opacity="1"></use><g><use xlink:href="#a4ZrdAcgSs" opacity="1" fill-opacity="0" stroke="#000000" stroke-width="1" stroke-opacity="0"></use></g></g><g><use xlink:href="#bIbrphLTB" opacity="1" fill="#000000" fill-opacity="0"></use><g><use xlink:href="#bIbrphLTB" opacity="1" fill-opacity="0" stroke="#434343" stroke-width="3" stroke-opacity="1"></use></g></g><g><use xlink:href="#c370I0AqBl" opacity="1" fill="#282320" fill-opacity="1"></use><g><use xlink:href="#c370I0AqBl" opacity="1" fill-opacity="0" stroke="#000000" stroke-width="1" stroke-opacity="0"></use></g></g><g><use xlink:href="#dkmUzfvsZ" opacity="1" fill="#000000" fill-opacity="0"></use><g><use xlink:href="#dkmUzfvsZ" opacity="1" fill-opacity="0" stroke="#434343" stroke-width="3" stroke-opacity="1"></use></g></g><g><use xlink:href="#a2Pvz0OVV" opacity="1" fill="#282320" fill-opacity="1"></use><g><use xlink:href="#a2Pvz0OVV" opacity="1" fill-opacity="0" stroke="#000000" stroke-width="1" stroke-opacity="0"></use></g></g><g><use xlink:href="#a7zlzRORo9" opacity="1" fill="#000000" fill-opacity="0"></use><g><use xlink:href="#a7zlzRORo9" opacity="1" fill-opacity="0" stroke="#434343" stroke-width="3" stroke-opacity="1"></use></g></g><g><use xlink:href="#b1nExZdr3u" opacity="1" fill="#282320" fill-opacity="1"></use><g><use xlink:href="#b1nExZdr3u" opacity="1" fill-opacity="0" stroke="#000000" stroke-width="1" stroke-opacity="0"></use></g></g><g><use xlink:href="#b5pWduTDu" opacity="1" fill="#000000" fill-opacity="0"></use><g><use xlink:href="#b5pWduTDu" opacity="1" fill-opacity="0" stroke="#434343" stroke-width="3" stroke-opacity="1"></use></g></g><g><use xlink:href="#a2Y2hNSOPU" opacity="1" fill="#000000" fill-opacity="0"></use><g><use xlink:href="#a2Y2hNSOPU" opacity="1" fill-opacity="0" stroke="#434343" stroke-width="3" stroke-opacity="1"></use></g></g><g><use xlink:href="#boP7OQU7E" opacity="1" fill="#434343" fill-opacity="1"></use><g><use xlink:href="#boP7OQU7E" opacity="1" fill-opacity="0" stroke="#000000" stroke-width="1" stroke-opacity="0"></use></g></g><g><use xlink:href="#dGmaf09ox" opacity="1" fill="#000000" fill-opacity="0"></use><g><use xlink:href="#dGmaf09ox" opacity="1" fill-opacity="0" stroke="#434343" stroke-width="3" stroke-opacity="1"></use></g></g></g></g></svg>