<?xml version="1.0" encoding="UTF-8" standalone="no"?>
<!DOCTYPE svg PUBLIC "-//W3C//DTD SVG 1.1//EN" "http://www.w3.org/Graphics/SVG/1.1/DTD/svg11.dtd">
<svg version="1.1" xmlns="http://www.w3.org/2000/svg" xmlns:xlink="http://www.w3.org/1999/xlink" preserveAspectRatio="xMidYMid meet" viewBox="0 0 960 640" width="960" height="640"><defs><path d="M0 440.47L960 440.47L960 640L0 640L0 440.47Z" id="fGqXbRHw7"></path><path d="M-60.52 430.87L-54.42 -16.09L989.41 -20.64L993.95 491.48L683.23 453.6L-60.52 430.87Z" id="aE5EIKYVU"></path><path d="M256.82 -45.5L294.32 -45.5L466.72 336.36L81.82 327.5L256.82 -45.5Z" id="aK964d6Sp"></path><path d="M377.61 232.72C392.64 232.72 409.17 235.78 427.2 241.89C443.96 247.57 454.81 263.79 453.66 281.45C452.45 300.06 450.77 325.93 449.56 344.54C448.46 361.38 434.49 374.47 417.61 374.47C394.81 374.47 356.41 374.47 333.61 374.47C316.76 374.47 302.82 361.35 301.79 344.53C300.7 326.52 299.24 302.43 298.14 284.42C297.06 266.62 307.72 250.21 324.42 243.96C344.44 236.47 362.17 232.72 377.61 232.72Z" id="c7RfhNrOP"></path><path d="M53.69 -25.39L91.19 -25.39L263.58 356.47L-121.31 347.61L53.69 -25.39Z" id="h3eYJ0n3mk"></path><path d="M81.82 327.5C107.66 339.17 176.16 345 287.32 345C398.49 345 472.99 339.17 510.82 327.5L470.82 313.5C426.49 315.83 369.83 318 300.83 320C231.83 322 173.16 319.83 124.82 313.5L81.82 327.5Z" id="d1GNPuUwph"></path><path d="" id="d2T2sxE9uL"></path><path d="M683.23 453.72L992.49 485.48L992.49 510.22L683.23 476.22L683.23 453.72Z" id="eh0CSp3E"></path><path d="M335.31 465.78L180.88 474.01L-10.54 484.22L-10.54 484.22L-10.54 484.22L-10.54 511.22C113.57 538.19 233.44 549.01 349.07 543.68C464.7 538.34 576.08 515.86 683.23 476.22L683.23 447.22L335.31 465.78Z" id="d2cnAqyw5R"></path><path d="M694.92 455.45C632.63 470.97 593.7 480.67 578.13 484.56C388.62 531.79 190.76 534.58 0 492.72C0 492.72 0 492.72 0 492.72L0 259.49L88.24 263.78L88.24 336.76C122.82 343.43 179.1 347.25 257.08 348.2C335.06 349.16 415.66 347.25 498.89 342.48L500.89 267.6L698.14 260.78L694.92 455.45Z" id="d1JS1eLyrn"></path><path d="M142.27 237.33L142.27 256.17L88.24 263.15L88.24 244.5L142.27 237.33Z" id="b277CMa1oB"></path><path d="M135.45 257.99L135.45 320L88.24 329.6L88.24 263.15L135.45 257.99Z" id="c4RMdrbqVJ"></path><path d="M0 239.89L0 258.22L88.24 263.15L88.24 244.22L0 239.89Z" id="d9lNHe9aR"></path><path d="M459.64 322.3L498.97 330.22L499.97 268.19L462.31 266.22L459.64 322.3Z" id="fXzdga3kH"></path><path d="M488.73 246.67L453.22 245.47L453.22 263.05L499.97 266.22L499.97 247.05L488.73 246.67Z" id="k3OnrqH2ek"></path><path d="M702.68 242.72L702.68 259.49L499.97 266.22L499.97 247.39L702.68 242.72Z" id="dz3YRTsr0"></path><path d="M506.82 345.5C422.99 353.71 345.66 357.31 274.83 356.31C203.99 355.31 139.66 350.71 81.82 342.5L81.82 327.5C139.66 335.15 203.99 339.15 274.83 339.5C345.66 339.85 422.99 336.55 506.82 329.6L506.82 345.5Z" id="acTrSPxkF"></path><path d="M475.58 -45.5L683.23 0L680.23 239.5L475.58 244.05L475.58 -45.5Z" id="a2YWZA2Vvi"></path><path d="M-53.42 -14.67L121.73 -49.67L117.23 237.33L-54.42 233.39L-53.42 -14.67Z" id="a45eXR1F6r"></path><path d="M453.22 244.05L678.72 239.97L702.68 242.05L499.97 245.47L453.22 244.72L453.22 244.05Z" id="c5vyLKNLpQ"></path><path d="M0 238.47L0 234.47L142.27 237.33L88.24 244.5L0 238.47Z" id="dxSumRppV"></path><path d="M697.14 320L993.95 335.72L993.95 352.72L697.14 335.72L697.14 320Z" id="f3tPYVBStw"></path></defs><g><g><g><use xlink:href="#fGqXbRHw7" opacity="1" fill="#aa8973" fill-opacity="1"></use></g><g><use xlink:href="#aE5EIKYVU" opacity="1" fill="#c8cbcb" fill-opacity="1"></use><g><use xlink:href="#aE5EIKYVU" opacity="1" fill-opacity="0" stroke="#434343" stroke-width="3" stroke-opacity="1"></use></g></g><g><use xlink:href="#aK964d6Sp" opacity="1" fill="#fffbca" fill-opacity="0.06"></use></g><g><use xlink:href="#c7RfhNrOP" opacity="1" fill="#799ca7" fill-opacity="1"></use><g><use xlink:href="#c7RfhNrOP" opacity="1" fill-opacity="0" stroke="#434343" stroke-width="3" stroke-opacity="1"></use></g></g><g><use xlink:href="#h3eYJ0n3mk" opacity="1" fill="#fffbca" fill-opacity="0.05"></use></g><g><use xlink:href="#d1GNPuUwph" opacity="1" fill="#97938a" fill-opacity="1"></use><g><use xlink:href="#d1GNPuUwph" opacity="1" fill-opacity="0" stroke="#434343" stroke-width="3" stroke-opacity="1"></use></g></g><g><g><use xlink:href="#d2T2sxE9uL" opacity="1" fill-opacity="0" stroke="#434343" stroke-width="3" stroke-opacity="1"></use></g></g><g><use xlink:href="#eh0CSp3E" opacity="1" fill="#86756e" fill-opacity="1"></use><g><use xlink:href="#eh0CSp3E" opacity="1" fill-opacity="0" stroke="#434343" stroke-width="3" stroke-opacity="1"></use></g></g><g><use xlink:href="#d2cnAqyw5R" opacity="1" fill="#799ca7" fill-opacity="1"></use><g><use xlink:href="#d2cnAqyw5R" opacity="1" fill-opacity="0" stroke="#434343" stroke-width="3" stroke-opacity="1"></use></g></g><g><use xlink:href="#d1JS1eLyrn" opacity="1" fill="#caa37a" fill-opacity="1"></use><g><use xlink:href="#d1JS1eLyrn" opacity="1" fill-opacity="0" stroke="#434343" stroke-width="3" stroke-opacity="1"></use></g></g><g><use xlink:href="#b277CMa1oB" opacity="1" fill="#a0a19b" fill-opacity="1"></use><g><use xlink:href="#b277CMa1oB" opacity="1" fill-opacity="0" stroke="#434343" stroke-width="3" stroke-opacity="1"></use></g></g><g><use xlink:href="#c4RMdrbqVJ" opacity="1" fill="#9e8060" fill-opacity="1"></use><g><use xlink:href="#c4RMdrbqVJ" opacity="1" fill-opacity="0" stroke="#434343" stroke-width="3" stroke-opacity="1"></use></g></g><g><use xlink:href="#d9lNHe9aR" opacity="1" fill="#888176" fill-opacity="1"></use><g><use xlink:href="#d9lNHe9aR" opacity="1" fill-opacity="0" stroke="#434343" stroke-width="3" stroke-opacity="1"></use></g></g><g><use xlink:href="#fXzdga3kH" opacity="1" fill="#9e8060" fill-opacity="1"></use><g><use xlink:href="#fXzdga3kH" opacity="1" fill-opacity="0" stroke="#434343" stroke-width="3" stroke-opacity="1"></use></g></g><g><use xlink:href="#k3OnrqH2ek" opacity="1" fill="#888176" fill-opacity="1"></use><g><use xlink:href="#k3OnrqH2ek" opacity="1" fill-opacity="0" stroke="#434343" stroke-width="3" stroke-opacity="1"></use></g></g><g><use xlink:href="#dz3YRTsr0" opacity="1" fill="#a0a19b" fill-opacity="1"></use><g><use xlink:href="#dz3YRTsr0" opacity="1" fill-opacity="0" stroke="#434343" stroke-width="3" stroke-opacity="1"></use></g></g><g><use xlink:href="#acTrSPxkF" opacity="1" fill="#bab9b3" fill-opacity="1"></use><g><use xlink:href="#acTrSPxkF" opacity="1" fill-opacity="0" stroke="#434343" stroke-width="3" stroke-opacity="1"></use></g></g><g><use xlink:href="#a2YWZA2Vvi" opacity="1" fill="#688d97" fill-opacity="0.25"></use><g><use xlink:href="#a2YWZA2Vvi" opacity="1" fill-opacity="0" stroke="#434343" stroke-width="3" stroke-opacity="1"></use></g></g><g><use xlink:href="#a45eXR1F6r" opacity="1" fill="#688d97" fill-opacity="0.25"></use><g><use xlink:href="#a45eXR1F6r" opacity="1" fill-opacity="0" stroke="#434343" stroke-width="3" stroke-opacity="1"></use></g></g><g><use xlink:href="#c5vyLKNLpQ" opacity="1" fill="#434343" fill-opacity="1"></use><g><use xlink:href="#c5vyLKNLpQ" opacity="1" fill-opacity="0" stroke="#434343" stroke-width="3" stroke-opacity="1"></use></g></g><g><use xlink:href="#dxSumRppV" opacity="1" fill="#434343" fill-opacity="1"></use><g><use xlink:href="#dxSumRppV" opacity="1" fill-opacity="0" stroke="#434343" stroke-width="3" stroke-opacity="1"></use></g></g><g><use xlink:href="#f3tPYVBStw" opacity="1" fill="#76563b" fill-opacity="1"></use><g><use xlink:href="#f3tPYVBStw" opacity="1" fill-opacity="0" stroke="#434343" stroke-width="3" stroke-opacity="1"></use></g></g></g></g></svg>