<?xml version="1.0" encoding="UTF-8" standalone="no"?>
<!DOCTYPE svg PUBLIC "-//W3C//DTD SVG 1.1//EN" "http://www.w3.org/Graphics/SVG/1.1/DTD/svg11.dtd">
<svg version="1.1" xmlns="http://www.w3.org/2000/svg" xmlns:xlink="http://www.w3.org/1999/xlink" preserveAspectRatio="xMidYMid meet" viewBox="0 0 640 640" width="640" height="640"><defs><path d="M480.77 554.68C483.55 563.43 485.98 571.8 488.06 579.79C488.77 582.49 489.99 587.11 491.72 593.64C492.28 595.48 492.91 597.34 493.61 599.24C494.67 602.08 495.61 603.11 495.93 605.01C496.49 608.32 496.5 606.6 496.95 609.88C497.5 613.88 498.94 619.24 499.25 623.46C499.93 632.65 499.72 641.94 498.6 651.35L553.6 646.68C553.52 632.5 552.68 618.7 551.09 605.28C550.65 601.6 549.18 597.95 548.68 594.34C547.57 586.34 547.05 578.48 545.63 570.76C544.06 562.23 542.55 553.2 541.1 543.68L480.77 554.68Z" id="b2U1JbAUEB"></path><path d="M223.33 413.11L333.83 445.11L427.83 325.61L419.83 294.11L372.83 300.11C360.69 301.71 353.03 298.04 349.83 289.13C346.64 280.21 345.42 266.04 346.18 246.61L250.83 258.11C256.67 278.2 258 295.53 254.83 310.11C254.11 313.45 251.66 312.77 249.48 312.48C248 312.28 247.18 312.26 245.02 313.83C236.53 319.99 222.8 327.92 203.83 337.61L223.33 413.11Z" id="aUdE9VTKA"></path><path d="M165.69 623.49C168.31 616.43 171.37 609.72 174.88 603.35L209.54 605.01L206.21 649.01L159.21 645.68C160.92 637.94 163.08 630.54 165.69 623.49Z" id="bzBdgVOYe"></path><path d="M172.81 352.91C161.3 361.36 153.58 370.68 149.65 380.87C143.75 396.16 135.21 430.03 133.05 446.43C130.89 462.83 129.26 477.33 128.41 492.09C127.79 502.77 128.3 512.88 128.41 516.83C128.51 520.78 129.27 524.45 128.41 536.07C127.96 542.04 125.61 550.81 125.61 554.43C125.61 558.05 126.12 563.9 127.52 568.55C129.1 573.78 132.62 578.74 134.21 580.2C137.21 582.95 144.76 588.62 146.21 591.2C147.66 593.78 143.84 605.12 144.81 607.33C145.78 609.55 155.23 606.7 164.68 608.87C174.13 611.03 176.06 613.28 186.14 615.2C192.86 616.48 199.15 616.92 205.01 616.53C202.43 622.41 200.39 627.66 198.89 632.27C197.39 636.88 196.43 640.86 196.01 644.2L491.64 643.2L475.3 549.23L482.64 567.9C493.16 569.86 503.21 569.47 512.78 566.72C522.35 563.97 531.45 558.86 540.07 551.4C550.83 546.34 557.9 540.68 561.29 534.4C566.38 524.98 558.52 520.36 560.4 513.73C562.29 507.1 570.58 501.24 564.63 480.21C558.67 459.18 562.22 466.81 545.93 425.95C535.06 398.72 520.69 365.22 502.79 325.46C490.19 305.66 478.34 294.35 467.25 291.53C456.16 288.7 438.83 288.37 415.25 290.53C404.08 319.31 390.53 342.16 374.62 359.07C358.7 375.99 339.08 391.2 315.75 404.7C280.39 405.16 253.33 395.35 234.58 375.27C215.83 355.18 208.72 338.83 213.25 326.2L172.81 352.91Z" id="e1n4bTMDIC"></path><path d="M268.66 99.47L282.33 98.47C290.77 100.23 295.77 100.23 297.33 98.47C299.66 95.83 297.41 95.32 297.33 91.24C297.24 87.15 297.43 81.89 299.43 74.14C301.43 66.39 306.08 63.97 305.33 61.81C304.58 59.64 284.17 59.39 266.99 66.81C249.82 74.22 248.13 78.06 236.63 90.47C228.96 98.75 223.75 107.42 220.99 116.47L211.66 129.47L199.33 162.14C200.42 178.11 201.37 188.51 202.17 193.34C202.97 198.17 205.79 215.26 210.63 244.61C213.42 263.07 214.31 279.02 213.29 292.46C212.27 305.91 209.12 319.2 203.83 332.34L236.63 320C245.01 317.15 250.79 313.15 253.96 308.01C258.71 300.29 256.54 301.13 255.63 289.13C255.01 281.13 253.24 271.42 250.29 260.01C248.83 259.21 246.44 256.43 243.1 251.67C238.1 244.54 234.09 230.46 234.29 223.46C234.49 216.46 233.1 209.87 233.1 196.46C233.1 183.04 231.41 182.79 232.29 169.79C233.17 156.79 232.79 155.62 236.63 143.46C239.18 135.34 242.85 127.46 247.63 119.79L268.66 99.47Z" id="a6MLZ3Ur6"></path><path d="M363.77 185.18C363.77 203.98 359.27 224.53 354.12 238.77C352.21 244.04 346.89 251.04 344.13 255.8C338.12 266.16 328.88 275.58 320 280.35C314.19 283.47 306.22 285.18 299.6 285.18C292.85 285.18 286.19 283.4 278.58 280.16C271.27 277.04 262.98 272.57 257.82 267.01C250.82 259.47 241.39 249.62 237.85 238.77C233.05 224.09 233.1 206.32 233.1 188.51C233.1 166.93 234.5 144.26 243.31 128.77C255.24 107.81 277.42 97.51 296.93 97.51C330.88 97.51 363.77 134.4 363.77 185.18Z" id="b5jY7QX4nl"></path><path d="M287.29 91.37C278.26 88.17 270.02 89.54 252.29 92.79C234.57 96.04 226.92 102.41 216.39 116.79C205.86 131.16 201.63 139.86 198.96 153.96C196.29 168.05 199.13 177.61 201.63 190.35C203.29 198.84 206.96 209.15 212.63 221.29C216.63 234.59 219.29 247.46 220.63 259.89C221.96 272.32 221.63 284.66 219.63 296.89C218.13 307.61 215.46 316.39 211.63 323.22C207.79 330.06 201.79 334.95 193.63 337.89C197.51 335.67 201.85 334.56 206.63 334.56C211.4 334.56 216.63 335.67 222.29 337.89C233.6 339.98 240.83 336.42 243.96 327.22C248.66 313.42 244.98 304.32 241.09 282.69C237.21 261.06 236.35 255.3 229.76 235.02C223.17 214.75 220.56 211.76 214.72 201.6C208.89 191.43 202.98 178.52 203.09 171.69C203.34 156.17 204.51 151.46 215.43 139.61C226.35 127.75 231.97 129.11 246.1 120.27C260.22 111.44 261.43 108.52 271.93 104.27C278.93 101.44 287.1 99.19 296.43 97.51C296.36 95.56 293.32 93.51 287.29 91.37Z" id="a23X5KVzFZ"></path><path d="M316.56 82.29L346.18 90.96L385.86 140.79C392.19 154.62 396.97 168.07 400.19 181.12C405.03 200.71 402.36 199.88 401.53 218.12C400.69 236.36 397.36 241.1 400.19 255.09C403.03 269.08 403.28 269.84 416.53 275.09C429.78 280.34 445.86 275.48 453.19 276.09C460.53 276.7 471.61 278.76 482.53 285.18C493.44 291.6 492.53 293.05 496.86 301.76C499.75 307.56 500.75 313.64 499.86 320C497.08 314.04 493.08 308.74 487.86 304.09C480.03 297.11 480.11 295.83 468.53 292.09C456.94 288.35 453.69 287.96 442.53 289.13C431.36 290.29 431.28 293.6 423.86 296.76C416.44 299.91 416.53 298.59 412.86 301.76C410.41 303.87 409.19 306.42 409.19 309.42C414.97 318.98 418.97 329.2 421.19 340.09C424.53 356.42 425.94 359.84 423.86 376.09C422.47 386.92 418.8 396.59 412.86 405.09C413.79 395.54 413.79 386.32 412.86 377.42C411.46 364.08 412.01 361.9 407.26 351.73C404.09 344.96 399.96 338.96 394.86 333.76C397.86 340.86 399.64 346.53 400.19 350.75C400.75 354.97 400.75 359.86 400.19 365.42C398.81 362.52 397.32 359.38 395.71 355.99C394.1 352.6 392.37 348.97 390.53 345.09C393.97 353.09 395.41 362.09 394.86 372.09C394.3 382.09 391.75 393.09 387.19 405.09C385.05 379.56 381.72 361.11 377.19 349.76C372.66 338.4 367.72 329.91 362.36 324.29C358.39 317.35 355.06 309.57 352.36 300.96C348.31 288.04 347.72 283.21 346.18 272.62C345.15 265.57 345.15 259.46 346.18 254.29L353.34 242.62L361.13 211.66C363.05 192.43 363.93 179.99 363.77 174.32C363.52 165.82 362.45 162.82 358.79 152.32C356.35 145.32 353.13 137.77 349.13 129.66C344.07 121.68 338.07 115.01 331.13 109.66C324.18 104.3 316.29 100.25 307.46 97.51L316.56 82.29Z" id="aWVWaLo0t"></path><path d="M312.36 102.59C323.08 100.98 329.19 100.31 330.69 100.59C332.94 101.01 338.32 100.85 341.69 108.92C345.06 117 341.57 120.39 346.18 131.56C350.78 142.72 353.1 146.08 360.1 153.59C367.1 161.1 374.46 168.42 372.36 184.26C370.26 200.09 359.78 206.34 355.36 216.92C350.94 227.51 345.78 241.77 349.69 254.26C353.61 266.75 357.59 270.56 367.69 274.55C377.8 278.54 383.72 277.14 391.11 274.55C396.04 272.82 401.42 270.05 407.26 266.22C391.76 269.17 381.2 267.72 375.59 261.89C367.18 253.14 363.68 251.28 366.93 233.89C370.18 216.5 379.51 207.1 384.59 191.35C389.68 175.6 392.16 152.27 384.59 131.56C377.03 110.84 375.39 104.66 361.66 88.69C347.93 72.72 339.83 65.64 329.66 63.36C319.49 61.08 308.58 61.44 307.33 63.36C306.08 65.27 304.24 66.02 302.33 71.02C300.41 76.02 299.91 76.73 299.66 83.36C299.41 89.98 298.83 94.1 301.33 97.51C302.99 99.79 304.99 101.18 307.33 101.69L312.36 102.59Z" id="g23dPAcMJj"></path><path d="M354.98 175.65C354.98 175.06 354.98 173.9 354.98 172.15L349.48 166.65L344.98 165.15L339.98 165.15L319.23 167.65L319.23 165.15L327.98 164.15L332.73 164.15L343.98 165.15" id="b9OuwzumF"></path><path d="M264.98 156.15L272.23 157.9L278.98 160.65L288.48 161.65L287.23 158.9L282.48 157.15L273.98 155.15L265.73 154.15L258.23 155.15L251.23 158.9L246.73 162.4" id="a1D36iZbvu"></path></defs><g><g><g><use xlink:href="#b2U1JbAUEB" opacity="1" fill="#c17b57" fill-opacity="1"></use><g><use xlink:href="#b2U1JbAUEB" opacity="1" fill-opacity="0" stroke="#434343" stroke-width="3" stroke-opacity="1"></use></g></g><g><use xlink:href="#aUdE9VTKA" opacity="1" fill="#c17b57" fill-opacity="1"></use><g><use xlink:href="#aUdE9VTKA" opacity="1" fill-opacity="0" stroke="#434343" stroke-width="3" stroke-opacity="1"></use></g></g><g><use xlink:href="#bzBdgVOYe" opacity="1" fill="#c17b57" fill-opacity="1"></use><g><use xlink:href="#bzBdgVOYe" opacity="1" fill-opacity="0" stroke="#434343" stroke-width="3" stroke-opacity="1"></use></g></g><g><use xlink:href="#e1n4bTMDIC" opacity="1" fill="#eaf2f7" fill-opacity="1"></use><g><use xlink:href="#e1n4bTMDIC" opacity="1" fill-opacity="0" stroke="#434343" stroke-width="3" stroke-opacity="1"></use></g></g><g><use xlink:href="#a6MLZ3Ur6" opacity="1" fill="#282320" fill-opacity="1"></use><g><use xlink:href="#a6MLZ3Ur6" opacity="1" fill-opacity="0" stroke="#434343" stroke-width="3" stroke-opacity="1"></use></g></g><g><use xlink:href="#b5jY7QX4nl" opacity="1" fill="#c48261" fill-opacity="1"></use><g><use xlink:href="#b5jY7QX4nl" opacity="1" fill-opacity="0" stroke="#434343" stroke-width="3" stroke-opacity="1"></use></g></g><g><use xlink:href="#a23X5KVzFZ" opacity="1" fill="#282320" fill-opacity="1"></use><g><use xlink:href="#a23X5KVzFZ" opacity="1" fill-opacity="0" stroke="#434343" stroke-width="3" stroke-opacity="1"></use></g></g><g><use xlink:href="#aWVWaLo0t" opacity="1" fill="#282320" fill-opacity="1"></use><g><use xlink:href="#aWVWaLo0t" opacity="1" fill-opacity="0" stroke="#434343" stroke-width="3" stroke-opacity="1"></use></g></g><g><use xlink:href="#g23dPAcMJj" opacity="1" fill="#282320" fill-opacity="1"></use><g><use xlink:href="#g23dPAcMJj" opacity="1" fill-opacity="0" stroke="#434343" stroke-width="3" stroke-opacity="1"></use></g></g><g><g><use xlink:href="#b9OuwzumF" opacity="1" fill-opacity="0" stroke="#434343" stroke-width="3" stroke-opacity="1"></use></g></g><g><use xlink:href="#a1D36iZbvu" opacity="1" fill="#434343" fill-opacity="1"></use><g><use xlink:href="#a1D36iZbvu" opacity="1" fill-opacity="0" stroke="#434343" stroke-width="3" stroke-opacity="1"></use></g></g></g></g></svg>